<svg width="32" height="32" viewBox="0 0 32 32" fill="none" xmlns="http://www.w3.org/2000/svg">
<path d="M13.375 17.75L9 13.375M9 13.375L13.375 9M9 13.375H18.1875C18.8195 13.375 19.4453 13.4995 20.0292 13.7413C20.613 13.9832 21.1436 14.3377 21.5905 14.7845C22.0373 15.2314 22.3918 15.762 22.6337 16.3458C22.8755 16.9297 23 17.5555 23 18.1875C23 18.8195 22.8755 19.4453 22.6337 20.0292C22.3918 20.613 22.0373 21.1436 21.5905 21.5905C21.1436 22.0373 20.613 22.3918 20.0292 22.6337C19.4453 22.8755 18.8195 23 18.1875 23H15.125" stroke="white" stroke-opacity="0.5" stroke-linecap="round" stroke-linejoin="round"/>
</svg>
