<svg width="32" height="32" viewBox="0 0 32 32" fill="none" xmlns="http://www.w3.org/2000/svg">
<rect width="32" height="32" rx="16" fill="black" fill-opacity="0.2"/>
<g filter="url(#filter0_d_179_38)">
<path d="M11.1 19.6111H10.4C10.0287 19.6111 9.6726 19.4589 9.41005 19.188C9.1475 18.9172 9 18.5498 9 18.1667V10.9444C9 10.5614 9.1475 10.194 9.41005 9.92307C9.6726 9.65218 10.0287 9.5 10.4 9.5H21.6C21.9713 9.5 22.3274 9.65218 22.5899 9.92307C22.8525 10.194 23 10.5614 23 10.9444V18.1667C23 18.5498 22.8525 18.9172 22.5899 19.188C22.3274 19.4589 21.9713 19.6111 21.6 19.6111H20.9M16 18.1667L19.5 22.5H12.5L16 18.1667Z" stroke="white" stroke-opacity="0.5" stroke-linecap="round" stroke-linejoin="round" shape-rendering="crispEdges"/>
</g>
<defs>
<filter id="filter0_d_179_38" x="4.5" y="9" width="23" height="22" filterUnits="userSpaceOnUse" color-interpolation-filters="sRGB">
<feFlood flood-opacity="0" result="BackgroundImageFix"/>
<feColorMatrix in="SourceAlpha" type="matrix" values="0 0 0 0 0 0 0 0 0 0 0 0 0 0 0 0 0 0 127 0" result="hardAlpha"/>
<feOffset dy="4"/>
<feGaussianBlur stdDeviation="2"/>
<feComposite in2="hardAlpha" operator="out"/>
<feColorMatrix type="matrix" values="0 0 0 0 0 0 0 0 0 0 0 0 0 0 0 0 0 0 0.25 0"/>
<feBlend mode="normal" in2="BackgroundImageFix" result="effect1_dropShadow_179_38"/>
<feBlend mode="normal" in="SourceGraphic" in2="effect1_dropShadow_179_38" result="shape"/>
</filter>
</defs>
</svg>
