<svg width="24" height="24" viewBox="0 0 24 24" fill="none" xmlns="http://www.w3.org/2000/svg">
<g clip-path="url(#clip0_179_753)">
<g filter="url(#filter0_d_179_753)">
<path d="M4 16C2.9 16 2 15.1 2 14V4C2 2.9 2.9 2 4 2H14C15.1 2 16 2.9 16 4M10 8H20C21.1046 8 22 8.89543 22 10V20C22 21.1046 21.1046 22 20 22H10C8.89543 22 8 21.1046 8 20V10C8 8.89543 8.89543 8 10 8Z" stroke="#242E3C" stroke-width="2" stroke-linecap="round" stroke-linejoin="round" shape-rendering="crispEdges"/>
</g>
</g>
<defs>
<filter id="filter0_d_179_753" x="0" y="1" width="24" height="24" filterUnits="userSpaceOnUse" color-interpolation-filters="sRGB">
<feFlood flood-opacity="0" result="BackgroundImageFix"/>
<feColorMatrix in="SourceAlpha" type="matrix" values="0 0 0 0 0 0 0 0 0 0 0 0 0 0 0 0 0 0 127 0" result="hardAlpha"/>
<feOffset dy="1"/>
<feGaussianBlur stdDeviation="0.5"/>
<feComposite in2="hardAlpha" operator="out"/>
<feColorMatrix type="matrix" values="0 0 0 0 0 0 0 0 0 0 0 0 0 0 0 0 0 0 0.1 0"/>
<feBlend mode="normal" in2="BackgroundImageFix" result="effect1_dropShadow_179_753"/>
<feBlend mode="normal" in="SourceGraphic" in2="effect1_dropShadow_179_753" result="shape"/>
</filter>
<clipPath id="clip0_179_753">
<rect width="24" height="24" fill="white"/>
</clipPath>
</defs>
</svg>
