<svg width="140" height="140" viewBox="0 0 140 140" fill="none" xmlns="http://www.w3.org/2000/svg">
<path d="M40 121.972V112C40 108.817 41.2643 105.765 43.5147 103.515C45.7652 101.264 48.8174 100 52 100H88C91.1826 100 94.2348 101.264 96.4853 103.515C98.7357 105.765 100 108.817 100 112V121.972M130 70C130 103.137 103.137 130 70 130C36.8629 130 10 103.137 10 70C10 36.8629 36.8629 10 70 10C103.137 10 130 36.8629 130 70ZM88 58C88 67.9411 79.9411 76 70 76C60.0589 76 52 67.9411 52 58C52 48.0589 60.0589 40 70 40C79.9411 40 88 48.0589 88 58Z" stroke="#8C313A" stroke-width="6" stroke-linecap="round" stroke-linejoin="round"/>
</svg>
