<svg width="140" height="140" viewBox="0 0 140 140" fill="none" xmlns="http://www.w3.org/2000/svg">
<path d="M70.2245 55C67.03 55 63.9663 56.2643 61.7075 58.5147C59.4486 60.7652 58.1796 63.8174 58.1796 67C58.1796 73.12 57.5774 82.06 56.6138 91M82.2694 73.72C82.2694 88 82.2694 112 76.2469 127M102.083 121.12C102.806 117.52 104.673 107.32 105.094 103M10 67C10 54.4071 13.9771 42.1333 21.3678 31.9174C28.7586 21.7015 39.1884 14.0612 51.1798 10.079C63.1713 6.09676 76.1164 5.97438 88.1815 9.72919C100.247 13.484 110.82 20.9256 118.404 31M10 91H10.0602M129.245 91C130.449 79 130.033 58.876 129.245 55M28.0673 112C31.0786 103 34.0898 85 34.0898 67C34.0837 62.9132 34.7762 58.8552 36.1374 55M50.0493 127C51.314 123.04 52.7594 119.08 53.4821 115M52.1571 35.8C57.652 32.6394 63.8854 30.9759 70.2303 30.9769C76.5752 30.9779 82.808 32.6434 88.3019 35.8058C93.7957 38.9682 98.3569 43.516 101.527 48.9919C104.697 54.4678 106.363 60.6787 106.359 67V79" stroke="#8C313A" stroke-width="6" stroke-linecap="round" stroke-linejoin="round"/>
</svg>
