<svg width="16" height="16" viewBox="0 0 16 16" fill="none" xmlns="http://www.w3.org/2000/svg">
<path d="M15 10.5C13.625 10.5 12.5 9.375 12.5 8H2.69995V13.3C4.04995 14.65 5.92495 15.5 7.99995 15.5C11.275 15.5 14.05 13.4 15.075 10.5H15Z" fill="#ED4C5C"/>
<path d="M15 5.5H15.075C14.05 2.6 11.275 0.5 7.99995 0.5C5.92495 0.5 4.04995 1.35 2.69995 2.7V8H12.5C12.5 6.625 13.625 5.5 15 5.5Z" fill="#699635"/>
<path d="M15.075 5.5H2.69995V10.5H15.075C15.35 9.725 15.5 8.875 15.5 8C15.5 7.125 15.35 6.275 15.075 5.5Z" fill="#F9F9F9"/>
<path d="M2.7 2.69995C1.35 4.04995 0.5 5.92495 0.5 7.99995C0.5 10.075 1.35 11.95 2.7 13.3L5.5 10.5V5.49995L2.7 2.69995Z" fill="#3E4347"/>
</svg>
