<svg width="32" height="32" viewBox="0 0 32 32" fill="none" xmlns="http://www.w3.org/2000/svg">
<rect width="32" height="32" rx="16" fill="black" fill-opacity="0.2"/>
<path d="M12.1111 15.2V12C12.1111 10.9391 12.5208 9.92172 13.2501 9.17157C13.9794 8.42143 14.9686 8 16 8C17.0314 8 18.0206 8.42143 18.7499 9.17157C19.4792 9.92172 19.8889 10.9391 19.8889 12V15.2M10.5556 15.2H21.4444C22.3036 15.2 23 15.9163 23 16.8V22.4C23 23.2837 22.3036 24 21.4444 24H10.5556C9.69645 24 9 23.2837 9 22.4V16.8C9 15.9163 9.69645 15.2 10.5556 15.2Z" stroke="white" stroke-opacity="0.5" stroke-width="2" stroke-linecap="round" stroke-linejoin="round"/>
</svg>
