<svg width="15" height="17" viewBox="0 0 15 17" fill="none" xmlns="http://www.w3.org/2000/svg">
<path d="M6.15229 15.2777C6.28882 15.5141 6.48519 15.7105 6.72165 15.847C6.95812 15.9835 7.22635 16.0554 7.49939 16.0554C7.77243 16.0554 8.04067 15.9835 8.27713 15.847C8.5136 15.7105 8.70996 15.5141 8.84649 15.2777M0.703208 10.8646C0.601604 10.976 0.534551 11.1145 0.510208 11.2632C0.485865 11.412 0.50528 11.5646 0.566092 11.7026C0.626904 11.8405 0.726491 11.9578 0.85274 12.0402C0.978988 12.1226 1.12646 12.1665 1.2772 12.1666H13.7216C13.8723 12.1667 14.0198 12.1229 14.1461 12.0407C14.2725 11.9585 14.3722 11.8413 14.4332 11.7034C14.4941 11.5656 14.5137 11.413 14.4896 11.2642C14.4654 11.1154 14.3986 10.9769 14.2971 10.8654C13.2627 9.79906 12.166 8.66584 12.166 5.16664C12.166 3.92897 11.6744 2.74199 10.7992 1.86683C9.92404 0.991662 8.73706 0.5 7.49939 0.5C6.26172 0.5 5.07474 0.991662 4.19958 1.86683C3.32441 2.74199 2.83275 3.92897 2.83275 5.16664C2.83275 8.66584 1.73531 9.79906 0.703208 10.8646Z" stroke="white" stroke-linecap="round" stroke-linejoin="round"/>
</svg>
