<svg width="32" height="32" viewBox="0 0 32 32" fill="none" xmlns="http://www.w3.org/2000/svg">
<rect width="32" height="32" rx="16" fill="black" fill-opacity="0.2"/>
<path d="M14.6523 23C14.7888 23.2364 14.9852 23.4328 15.2217 23.5693C15.4581 23.7058 15.7263 23.7777 15.9994 23.7777C16.2724 23.7777 16.5407 23.7058 16.7771 23.5693C17.0136 23.4328 17.21 23.2364 17.3465 23M9.20321 18.5869C9.1016 18.6983 9.03455 18.8367 9.01021 18.9855C8.98586 19.1343 9.00528 19.2869 9.06609 19.4249C9.1269 19.5628 9.22649 19.6801 9.35274 19.7625C9.47899 19.8449 9.62646 19.8888 9.7772 19.8889H22.2216C22.3723 19.8889 22.5198 19.8452 22.6461 19.763C22.7725 19.6807 22.8722 19.5636 22.9332 19.4257C22.9941 19.2879 23.0137 19.1353 22.9896 18.9865C22.9654 18.8377 22.8986 18.6992 22.7971 18.5877C21.7627 17.5213 20.666 16.3881 20.666 12.8889C20.666 11.6513 20.1744 10.4643 19.2992 9.58912C18.424 8.71395 17.2371 8.22229 15.9994 8.22229C14.7617 8.22229 13.5747 8.71395 12.6996 9.58912C11.8244 10.4643 11.3328 11.6513 11.3328 12.8889C11.3328 16.3881 10.2353 17.5213 9.20321 18.5869Z" stroke="white" stroke-opacity="0.5" stroke-linecap="round" stroke-linejoin="round"/>
</svg>
