<svg width="24" height="24" viewBox="0 0 24 24" fill="none" xmlns="http://www.w3.org/2000/svg">
<path d="M10.5 14H20.5M20.5 14L16.5 18M20.5 14L16.5 10M15.5 4H17.5C18.0304 4 18.5391 4.21071 18.9142 4.58579C19.2893 4.96086 19.5 5.46957 19.5 6V7.344M7.5 4H5.5C4.96957 4 4.46086 4.21071 4.08579 4.58579C3.71071 4.96086 3.5 5.46957 3.5 6V20C3.5 20.5304 3.71071 21.0391 4.08579 21.4142C4.46086 21.7893 4.96957 22 5.5 22H17.5C17.8729 22.0001 18.2384 21.8959 18.5552 21.6992C18.8721 21.5026 19.1276 21.2212 19.293 20.887M8.5 2H14.5C15.0523 2 15.5 2.44772 15.5 3V5C15.5 5.55228 15.0523 6 14.5 6H8.5C7.94772 6 7.5 5.55228 7.5 5V3C7.5 2.44772 7.94772 2 8.5 2Z" stroke="#8C313A" stroke-width="2" stroke-linecap="round" stroke-linejoin="round"/>
</svg>
