<svg width="32" height="32" viewBox="0 0 32 32" fill="none" xmlns="http://www.w3.org/2000/svg">
<path d="M21 8H19C18.4477 8 18 8.44772 18 9V23C18 23.5523 18.4477 24 19 24H21C21.5523 24 22 23.5523 22 23V9C22 8.44772 21.5523 8 21 8Z" stroke="#141B25" stroke-width="2" stroke-linecap="round" stroke-linejoin="round"/>
<path d="M13 8H11C10.4477 8 10 8.44772 10 9V23C10 23.5523 10.4477 24 11 24H13C13.5523 24 14 23.5523 14 23V9C14 8.44772 13.5523 8 13 8Z" stroke="#141B25" stroke-width="2" stroke-linecap="round" stroke-linejoin="round"/>
</svg>
