<svg width="24" height="24" viewBox="0 0 24 24" fill="none" xmlns="http://www.w3.org/2000/svg">
<path d="M3 10C3 11.3845 3.41054 12.7378 4.17971 13.889C4.94888 15.0401 6.04213 15.9373 7.32121 16.4672C8.6003 16.997 10.0078 17.1356 11.3656 16.8655C12.7235 16.5954 13.9708 15.9287 14.9497 14.9497C15.9287 13.9708 16.5954 12.7235 16.8655 11.3656C17.1356 10.0078 16.997 8.6003 16.4672 7.32121C15.9373 6.04213 15.0401 4.94888 13.889 4.17971C12.7378 3.41054 11.3845 3 10 3C8.04307 3.00736 6.16475 3.77095 4.75778 5.13111L3 6.88889M3 6.88889V3M3 6.88889H6.88889" stroke="white" stroke-opacity="0.5" stroke-linecap="round" stroke-linejoin="round"/>
</svg>
