<svg width="24" height="24" viewBox="0 0 24 24" fill="none" xmlns="http://www.w3.org/2000/svg">
<path d="M6 14L2 18M2 18L6 22M2 18H8.041C8.69643 17.9933 9.34018 17.8257 9.91561 17.5118C10.491 17.1979 10.9805 16.7474 11.341 16.2L11.7 15.75M6 2L2 6M2 6L6 10M2 6L7.973 6C8.61949 5.99558 9.25742 6.14794 9.83215 6.44401C10.4069 6.74008 10.9013 7.17105 11.273 7.7L16.727 16.3C17.0987 16.829 17.5931 17.2599 18.1679 17.556C18.7426 17.8521 19.3805 18.0044 20.027 18H22M22 6H20.028C19.2825 5.99481 18.5505 6.19805 17.9144 6.58678C17.2783 6.9755 16.7634 7.53426 16.428 8.2" stroke="#141B25" stroke-width="2" stroke-linecap="round" stroke-linejoin="round"/>
</svg>
